<?xml version="1.0" encoding="UTF-8"?>
<svg version="1.1" xmlns="http://www.w3.org/2000/svg" width="524" height="476">
<path d="M0 0 C2.26052681 0.01005396 4.52105845 0.0190706 6.78159332 0.02711105 C11.42850012 0.04481734 16.07533679 0.06768432 20.72219849 0.0947113 C27.05008897 0.12996321 33.37783053 0.14443581 39.70581055 0.14904785 C41.17003834 0.15016724 41.17003834 0.15016724 42.66384649 0.15130925 C44.62579406 0.15275188 46.58774166 0.15415494 48.54968929 0.15551805 C68.82335777 0.17399353 89.09699738 0.24266051 109.3705368 0.31378555 C120.92834321 0.35390536 132.48607618 0.38619957 144.04394531 0.40087891 C154.28074287 0.4138949 164.51739271 0.4407944 174.754107 0.48449588 C180.12881376 0.50698517 185.50333951 0.52280044 190.87809753 0.52176666 C195.89556116 0.52102046 200.91261588 0.53895471 205.9299736 0.57105064 C207.76046762 0.5795282 209.59100761 0.58131423 211.4215126 0.5756855 C226.34487101 0.53591082 237.57645761 2.43104944 248.65039062 13.20019531 C256.55321253 21.55419121 259.67143185 29.71586798 259.6686554 41.09841919 C259.67233208 41.90740815 259.67600877 42.71639711 259.67979687 43.54990089 C259.69082126 46.26423072 259.69467546 48.97852224 259.69848633 51.69287109 C259.70475197 53.63780336 259.71139886 55.58273443 259.71839905 57.52766418 C259.73943152 63.91849943 259.7498013 70.30933489 259.75976562 76.70019531 C259.76381361 78.90153898 259.76793055 81.10288251 259.77211571 83.30422592 C259.7911663 93.64763824 259.80539711 103.99104343 259.81372768 114.33446991 C259.82349724 126.26710053 259.84981011 138.1995455 259.89022857 150.13211071 C259.92040917 159.35944911 259.93519844 168.58673434 259.93850869 177.81412113 C259.94085712 183.32311609 259.94979074 188.83191271 259.97496986 194.34085464 C259.99828921 199.52669703 260.00246819 204.712211 259.99220848 209.89809227 C259.99171394 211.796724 259.99801023 213.69537211 260.01176453 215.59395409 C260.11501969 230.69743656 258.2462451 240.75513659 247.52148438 252.12988281 C234.34492091 264.96292321 218.61205566 263.71340859 201.40649414 263.66333008 C198.85441592 263.67039452 196.30234189 263.67914174 193.75027466 263.68943787 C187.55915958 263.70955546 181.36829143 263.71097441 175.1771564 263.70281232 C170.14130442 263.69649125 165.10550591 263.69766857 160.06965446 263.7040844 C159.35066446 263.70498605 158.63167445 263.70588771 157.89089687 263.70681668 C156.42989277 263.70866804 154.96888868 263.7105306 153.50788461 263.71240424 C139.83344802 263.72895117 126.15911486 263.72029001 112.48468452 263.70341866 C99.99757683 263.68872425 87.51070983 263.70335189 75.02363313 263.73218883 C62.17379325 263.7616405 49.32406422 263.77253835 36.47419208 263.76300663 C35.01850476 263.76198417 33.56281741 263.76098955 32.10713005 263.76002312 C31.39106638 263.75954673 30.67500271 263.75907034 29.93724014 263.75857951 C24.91322626 263.756423 19.88931826 263.76617859 14.86532784 263.78079414 C8.09109512 263.8002281 1.31737886 263.7931407 -5.45685959 263.76859474 C-7.9363578 263.76360038 -10.41589025 263.76704061 -12.89536095 263.77974319 C-30.16172995 263.86117229 -44.09081622 263.13799223 -57.11914062 250.54394531 C-65.25067647 241.79638403 -68.80253809 230.86793583 -68.73921204 219.07342529 C-68.74303758 218.30326529 -68.74686313 217.53310528 -68.7508046 216.7396071 C-68.76105417 214.18050027 -68.75715785 211.62162119 -68.75317383 209.0625 C-68.75752484 207.21874282 -68.76270928 205.37498745 -68.7686615 203.53123474 C-68.7820229 198.5372399 -68.7826332 193.54332087 -68.7800982 188.54931164 C-68.77902625 184.37219839 -68.78391774 180.19510034 -68.78870362 176.01799035 C-68.79978957 166.15732699 -68.80024176 156.29670173 -68.79418945 146.43603516 C-68.78815384 136.28409146 -68.80045233 126.1322865 -68.82175952 115.98036647 C-68.839411 107.24717223 -68.84537117 98.514022 -68.84212178 89.78081059 C-68.84031396 84.57255228 -68.84289466 79.36439288 -68.85683632 74.15615082 C-68.86946732 69.2542614 -68.86742091 64.35258711 -68.85442543 59.45070076 C-68.8520713 57.65934487 -68.85475223 55.86797359 -68.86304855 54.07663536 C-68.93267107 37.86506061 -67.22205595 24.35927843 -55.85351562 11.87988281 C-40.65719446 -2.2842354 -19.31406478 -0.15183079 0 0 Z M-32.3934679 37.80166245 C-33.79594153 40.81099336 -33.84750173 43.05949784 -33.83927917 46.38140869 C-33.84340317 47.66585876 -33.84752716 48.95030884 -33.85177612 50.27368164 C-33.84115932 51.69482632 -33.8302549 53.11596888 -33.8190918 54.53710938 C-33.81824548 56.03521711 -33.81872076 57.53332609 -33.82041931 59.03143311 C-33.82128051 63.09729122 -33.80363461 67.16288415 -33.78269744 71.22868061 C-33.76395146 75.47810334 -33.76218184 79.72753205 -33.75862122 83.97698975 C-33.74929463 92.02342298 -33.72467257 100.06973402 -33.69457275 108.11611342 C-33.66104781 117.2768369 -33.64454753 126.4375662 -33.62948644 135.59833574 C-33.59812354 154.44225406 -33.54535113 173.28605861 -33.47851562 192.12988281 C-31.25041239 192.35730891 -31.25041239 192.35730891 -29.40893555 190.19848633 C-28.42896919 189.17864528 -27.45267045 188.15527649 -26.47851562 187.12988281 C-25.11970791 185.73644673 -23.75928021 184.34458949 -22.39770508 182.95385742 C-21.62952957 182.16631577 -20.86135406 181.37877411 -20.06990051 180.56736755 C-16.57783659 176.99492842 -13.06980618 173.43834961 -9.56079102 169.88256836 C-7.71777437 168.00933567 -5.88017296 166.13075929 -4.0480957 164.24682617 C-1.38942238 161.5150244 1.28847305 158.80337853 3.97070312 156.09472656 C4.77835617 155.2561058 5.58600922 154.41748505 6.4181366 153.55345154 C12.6051878 147.36282366 18.52652578 143.78930042 27.27929688 142.63378906 C42.90240018 142.90565281 50.91824447 149.10521584 61.69335938 160.16503906 C64.40170181 163.07592847 66.97617553 166.07551219 69.52148438 169.12988281 C73.66766292 167.58448899 75.45390502 164.88890792 78.02148438 161.37988281 C82.67885977 155.12554141 87.64833711 149.20707122 92.75976562 143.32128906 C93.21689941 142.79293457 93.6740332 142.26458008 94.14501953 141.72021484 C95.08902466 140.62953563 96.03682013 139.54212891 96.98779297 138.45751953 C99.66808834 135.69129232 99.66808834 135.69129232 100.52148438 132.12988281 C101.51148438 131.79988281 102.50148438 131.46988281 103.52148438 131.12988281 C104.25472234 129.11479923 104.25472234 129.11479923 104.52148438 127.12988281 C105.18148437 127.12988281 105.84148437 127.12988281 106.52148438 127.12988281 C107.833022 125.66178776 109.07142513 124.12792497 110.27148438 122.56738281 C112.77911586 119.34132406 115.30850226 116.18521743 118.02148438 113.12988281 C120.73487917 110.52466319 120.73487917 110.52466319 120.52148438 108.12988281 C121.18148437 108.12988281 121.84148437 108.12988281 122.52148438 108.12988281 C124.23095291 106.21381635 124.23095291 106.21381635 125.95898438 103.81738281 C129.27828585 99.36536075 129.27828585 99.36536075 131.24414062 97.46191406 C132.7521961 96.19687884 132.7521961 96.19687884 132.52148438 94.12988281 C133.8530012 93.45959543 135.18678025 92.79380082 136.52148438 92.12988281 C137.22144531 91.77667969 137.92140625 91.42347656 138.64257812 91.05957031 C147.2040455 87.16143171 155.97170765 86.52677208 164.89648438 89.75488281 C172.91223366 93.48523957 177.69135547 99.37032672 183.12304688 106.19238281 C185.55463605 109.17048552 188.09860835 111.99535468 190.70898438 114.81738281 C194.22980492 118.62841096 197.42089873 122.49560305 200.36523438 126.76660156 C200.74679687 127.21648437 201.12835938 127.66636719 201.52148438 128.12988281 C202.18148437 128.12988281 202.84148437 128.12988281 203.52148438 128.12988281 C203.89080078 128.97873047 203.89080078 128.97873047 204.26757812 129.84472656 C205.73684661 132.5223654 207.49900873 134.46031893 209.58398438 136.69238281 C213.821859 141.30055716 217.77787347 146.07839326 221.67382812 150.97753906 C223.3413728 153.2012306 223.3413728 153.2012306 225.52148438 154.12988281 C225.63832452 139.35258448 225.72647568 124.57534735 225.78054523 109.79768085 C225.8063189 102.93600835 225.8414527 96.07462297 225.89868164 89.21313477 C225.95387034 82.5931023 225.98289545 75.97329001 225.99587059 69.35301781 C226.0051188 66.82558683 226.02317816 64.29817244 226.05013466 61.7708683 C226.0863601 58.23433588 226.09143217 54.69904121 226.08911133 51.16235352 C226.10708771 50.1143457 226.12506409 49.06633789 226.14358521 47.98657227 C226.13327522 46.53744194 226.13327522 46.53744194 226.12275696 45.05903625 C226.12736592 44.22297002 226.13197489 43.38690378 226.13672352 42.5255022 C225.17256894 38.77127519 223.64732676 37.3959401 220.52148438 35.12988281 C217.24517587 34.41478919 214.04666018 34.47199008 210.70413208 34.5218811 C209.70841214 34.51690341 208.7126922 34.51192572 207.68679893 34.50679719 C204.34626083 34.49620983 201.00695132 34.52139315 197.66650391 34.54638672 C195.27321255 34.54616005 192.87992055 34.54374664 190.4866333 34.53930664 C184.65811 34.53418575 178.82998766 34.55214984 173.00153817 34.58046992 C166.21188133 34.61232702 159.42229033 34.61672108 152.63256954 34.61966185 C140.51521821 34.62572695 128.39803412 34.65484599 116.28076172 34.69775391 C104.52815423 34.73933436 92.77562512 34.76768189 81.02294922 34.77978516 C80.29939374 34.78053337 79.57583826 34.78128158 78.83035685 34.78205247 C75.92178913 34.78502696 73.01322137 34.78796424 70.10465354 34.79083876 C57.54653875 34.80358687 44.98844135 34.82732228 32.43034619 34.85247701 C30.39932532 34.85645505 28.36830413 34.86017457 26.33728266 34.86383104 C18.61940338 34.87798039 10.90156684 34.89759709 3.18372345 34.92530823 C0.84523124 34.933021 -1.49326706 34.93908658 -3.83176804 34.94338608 C-7.02361318 34.94961813 -10.21537686 34.96197906 -13.40719604 34.97598267 C-14.33278694 34.97648042 -15.25837784 34.97697818 -16.21201694 34.97749102 C-24.87167313 34.55644066 -24.87167313 34.55644066 -32.3934679 37.80166245 Z " fill="#FEFDFD" transform="translate(170.478515625,62.8701171875)"/>
<path d="M0 0 C0.99 0 1.98 0 3 0 C4.19421906 2.38843812 4.11817304 3.82897762 4.10679626 6.49436951 C4.10452278 7.9134687 4.10452278 7.9134687 4.10220337 9.36123657 C4.09209732 10.92350479 4.09209732 10.92350479 4.08178711 12.51733398 C4.07872055 13.61186386 4.07565399 14.70639374 4.07249451 15.83409119 C4.06532483 18.21859395 4.05592733 20.6030908 4.04459953 22.98757744 C4.02724723 26.76711798 4.01692077 30.54661641 4.00868225 34.32618713 C3.98420444 45.07549182 3.94887514 55.8247365 3.90405273 66.57397461 C3.87674036 73.14446515 3.86019251 79.71494066 3.84918404 86.28547859 C3.84299506 88.7855864 3.83301599 91.28568792 3.81910515 93.78576469 C3.79975874 97.2965903 3.7929741 100.80724326 3.78881836 104.31811523 C3.78005676 105.3414093 3.77129517 106.36470337 3.76226807 107.41900635 C3.78116635 121.4958963 6.4586114 134.65021832 15 146 C15.59941406 146.83789062 16.19882813 147.67578125 16.81640625 148.5390625 C26.08189278 160.93048085 39.64987675 168.12162734 54.82401252 170.72169137 C63.38865766 171.81710882 72.16656442 171.43895015 80.7824707 171.43237305 C83.17845156 171.44140084 85.57442781 171.45173054 87.97039795 171.46325684 C93.77260481 171.48788905 99.57472219 171.49906229 105.37697653 171.50413426 C112.13533653 171.51078076 118.89360738 171.53427639 125.65192261 171.55872939 C137.70176919 171.60188695 149.75161064 171.63191648 161.80151367 171.65356445 C173.49880492 171.67460735 185.19605427 171.70191117 196.89331055 171.73754883 C197.97694733 171.74084707 197.97694733 171.74084707 199.08247576 171.74421193 C202.70708714 171.75528241 206.33169814 171.76647507 209.95630896 171.77772844 C239.97083613 171.87075716 269.98538301 171.94220652 300 172 C301.23174938 175.69524814 300.61600603 176.91855599 299.41015625 180.57421875 C299.04188721 181.70569336 298.67361816 182.83716797 298.29418945 184.00292969 C297.88773193 185.21883789 297.48127441 186.43474609 297.0625 187.6875 C296.43664677 189.58432237 295.81079519 191.48114529 295.18510437 193.37802124 C294.75755516 194.67130981 294.32859636 195.96413319 293.89826965 197.25650024 C292.49892636 201.46163305 291.14942611 205.67966388 289.828125 209.91015625 C289.15642908 212.02349443 288.4845628 214.13677847 287.8125 216.25 C287.51674072 217.21768311 287.22098145 218.18536621 286.91625977 219.18237305 C283.60182301 229.42346826 277.22352005 238.01377656 267.6640625 243.2890625 C256.3484839 248.51452903 245.06393142 247.78918067 233.25 244.5625 C232.23977783 244.29880615 231.22955566 244.0351123 230.1887207 243.76342773 C220.26926471 241.14503739 210.39384074 238.3471755 200.53417969 235.51196289 C192.38609713 233.18036918 184.20747876 230.99985336 176 228.88671875 C159.3448658 224.59733048 142.73602229 220.13785486 126.1262207 215.67675781 C121.73663277 214.49782322 117.34647353 213.32103243 112.95615292 212.14482975 C93.70201902 206.98533622 74.46584534 201.76592523 55.25067139 196.46314049 C42.2980731 192.88997774 29.32534979 189.41044725 16.3125 186.0625 C-27.0995482 174.88862342 -27.0995482 174.88862342 -36 160 C-38.75670717 154.68349331 -39.73299685 149.90169024 -40 144 C-40.06058594 142.79472656 -40.12117188 141.58945312 -40.18359375 140.34765625 C-40.14661974 135.26930481 -38.80522212 130.71841121 -37.375 125.875 C-37.07505127 124.83150391 -36.77510254 123.78800781 -36.46606445 122.71289062 C-31.40429327 105.28046665 -26.02247189 87.93921496 -20.70849609 70.58251953 C-12.92310221 45.21095878 -12.92310221 45.21095878 -5.4375 19.75 C-5.19773438 18.915896 -4.95796875 18.08179199 -4.7109375 17.22241211 C-3.6555622 13.50055528 -2.67878725 9.81341149 -2 6 C-1.34 6 -0.68 6 0 6 C-0.185625 5.195625 -0.37125 4.39125 -0.5625 3.5625 C-0.706875 2.716875 -0.85125 1.87125 -1 1 C-0.67 0.67 -0.34 0.34 0 0 Z " fill="#FDFDFD" transform="translate(77,177)"/>
<path d="M0 0 C0.65484375 0.44472656 1.3096875 0.88945313 1.984375 1.34765625 C8.85532383 6.61831999 12.83612769 14.48619433 14 23 C14.98119017 32.02694955 12.50748073 39.34325007 8.25 47.25 C1.40190279 55.61989659 -6.1548162 60.66386272 -17 61.875 C-27.88296303 62.4122602 -36.02159958 59.19637214 -44.26953125 52.02734375 C-50.85687155 45.29334652 -54.06797024 37.29061829 -54.4375 27.875 C-53.99159366 18.88495292 -50.9819297 10.77365568 -45 4 C-32.10453534 -7.29449711 -14.66051289 -10.01801714 0 0 Z " fill="#FDFCFC" transform="translate(205,118)"/>
<path d="M0 0 C0.99 0 1.98 0 3 0 C4.32750084 2.65500168 4.12712836 4.65773179 4.12939453 7.6315918 C4.13250641 8.82268555 4.13561829 10.0137793 4.13882446 11.2409668 C4.13684052 12.54718994 4.13485657 13.85341309 4.1328125 15.19921875 C4.13382772 16.57177762 4.13516693 17.94433627 4.1368103 19.31689453 C4.1395191 23.00926142 4.13503282 26.70158656 4.12857056 30.3939476 C4.12501281 32.67926916 4.12338445 34.96458447 4.12231445 37.24990845 C4.1070319 63.50888807 3.74113517 89.75080567 3 116 C2.67 116 2.34 116 2 116 C1.34 83.66 0.68 51.32 0 18 C-1.65 18.99 -3.3 19.98 -5 21 C-4.01 16.05 -3.02 11.1 -2 6 C-1.34 6 -0.68 6 0 6 C-0.2784375 4.7934375 -0.2784375 4.7934375 -0.5625 3.5625 C-0.706875 2.716875 -0.85125 1.87125 -1 1 C-0.67 0.67 -0.34 0.34 0 0 Z " fill="#EBE7E4" transform="translate(77,177)"/>
<path d="M0 0 C0.66 0.33 1.32 0.66 2 1 C1.67 1.66 1.34 2.32 1 3 C0.8940633 5.00156476 0.85333873 7.00668391 0.84178162 9.01101685 C0.8319928 10.29271759 0.82220398 11.57441833 0.81211853 12.8949585 C0.80621394 14.32336388 0.80040352 15.75176966 0.79467773 17.18017578 C0.78510192 18.67799146 0.77509202 20.17580441 0.76467896 21.6736145 C0.73759166 25.74772894 0.71660285 29.82185501 0.69667697 33.89600992 C0.67484096 38.15081825 0.64744063 42.40559057 0.62062073 46.66036987 C0.57066152 54.72095775 0.52573469 62.78156557 0.48259836 70.84219253 C0.43325354 80.0174206 0.37832521 89.19261256 0.32291877 98.36780572 C0.20904919 117.2451703 0.10222101 136.12256894 0 155 C0.66 155 1.32 155 2 155 C2.33 154.01 2.66 153.02 3 152 C4.37304688 150.64819336 4.37304688 150.64819336 6.21875 149.15234375 C12.67872493 143.67145877 18.53581962 137.56984007 24.5 131.5625 C25.71591114 130.3415631 26.93205516 129.12085808 28.1484375 127.90039062 C31.10164966 124.93625987 34.05169398 121.96901042 37 119 C37 122 37 122 35.67799377 123.67604065 C35.05923874 124.28511765 34.4404837 124.89419464 33.80297852 125.52172852 C33.10547989 126.21577286 32.40798126 126.9098172 31.68934631 127.62489319 C30.92690109 128.3687175 30.16445587 129.11254181 29.37890625 129.87890625 C28.2171714 131.03071632 28.2171714 131.03071632 27.03196716 132.20579529 C24.54910363 134.66518886 22.05633176 137.11423301 19.5625 139.5625 C17.07397069 142.01601675 14.58756245 144.47163023 12.10374451 146.92991638 C10.55549488 148.46113516 9.00418165 149.98926338 7.44960022 151.51405334 C6.74894943 152.20494553 6.04829865 152.89583771 5.32641602 153.60766602 C4.70686539 154.21594742 4.08731476 154.82422882 3.44898987 155.45094299 C1.9035133 156.95596943 1.9035133 156.95596943 1 159 C0.34 159 -0.32 159 -1 159 C-1.02333417 138.56428599 -1.04098173 118.12857467 -1.05181217 97.69285011 C-1.05697402 88.20473409 -1.06401462 78.71662634 -1.07543945 69.22851562 C-1.08538966 60.96112735 -1.09185424 52.69374505 -1.09408849 44.42635095 C-1.09539503 40.0466331 -1.09847727 35.66693238 -1.10573006 31.28722 C-1.11249557 27.16855426 -1.11461587 23.04991276 -1.11310768 18.93124199 C-1.11338377 17.41627686 -1.11538575 15.90131097 -1.11920547 14.38635063 C-1.12415101 12.32448227 -1.12299509 10.26270651 -1.12025452 8.20083618 C-1.12117631 7.04490778 -1.1220981 5.88897938 -1.12304783 4.69802284 C-1 2 -1 2 0 0 Z " fill="#DFDEDC" transform="translate(137,100)"/>
<path d="M0 0 C0.33 0 0.66 0 1 0 C1.33 39.27 1.66 78.54 2 119 C-2.05258567 116.97370716 -3.49958627 115.53107732 -6.25 112.0625 C-7.30960937 110.74958984 -7.30960937 110.74958984 -8.390625 109.41015625 C-10 107 -10 107 -10 104 C-7.03 107.3 -4.06 110.6 -1 114 C-0.67 76.38 -0.34 38.76 0 0 Z " fill="#DDDCDA" transform="translate(396,102)"/>
<path d="M0 0 C6.74072 1.516662 11.60072346 5.6277171 15.55078125 11.1796875 C20.11862359 18.96792606 22.08989411 26.97514509 21 36 C18.81155792 44.29126251 15.33478329 51.11770123 9 57 C8.34 56.67 7.68 56.34 7 56 C7.45890625 55.53851563 7.9178125 55.07703125 8.390625 54.6015625 C15.13969828 47.42712746 18.16660849 40.91570885 18.5 31 C18.18055527 21.49909557 15.37173065 14.63367953 8.8828125 7.6953125 C6.13075648 5.21732015 3.32046229 3.62634888 0 2 C0 1.34 0 0.68 0 0 Z " fill="#D9D6D5" transform="translate(198,115)"/>
<path d="M0 0 C0.33 0 0.66 0 1 0 C0.37199449 6.33916147 -0.97729103 12.24499172 -2.6875 18.375 C-2.95296631 19.33817139 -3.21843262 20.30134277 -3.49194336 21.29370117 C-5.39652093 28.09977338 -7.52127718 34.80641666 -9.80810547 41.49243164 C-11.59718041 46.7325411 -13.25035846 52.0003002 -14.8125 57.3125 C-15.0194751 58.01221924 -15.2264502 58.71193848 -15.43969727 59.43286133 C-16.45806429 62.93304241 -17.35449692 66.41155816 -18 70 C-18.33 70 -18.66 70 -19 70 C-19.39105543 63.78862156 -17.98185073 58.7472666 -16.11328125 52.8515625 C-15.81439499 51.88076752 -15.51550873 50.90997253 -15.20756531 49.90975952 C-14.2517268 46.81190744 -13.28254712 43.71842884 -12.3125 40.625 C-11.67941171 38.58492281 -11.04724183 36.54456036 -10.41601562 34.50390625 C-9.48875364 31.50640844 -8.56090429 28.50911485 -7.62918091 25.51300049 C-4.99554468 17.03469205 -2.47021993 8.52719631 0 0 Z " fill="#E8E3E3" transform="translate(57,245)"/>
<path d="M0 0 C0.99 0 1.98 0 3 0 C4.41207081 2.82414162 4.07574909 5.12844184 4.02172852 8.28564453 C4.0073172 9.2516861 4.0073172 9.2516861 3.99261475 10.23724365 C3.95959357 12.36921007 3.91927337 14.50097355 3.87890625 16.6328125 C3.85460816 18.10968304 3.83076445 19.58656111 3.80735779 21.06344604 C3.74448579 24.95319193 3.67542803 28.84280456 3.60510254 32.73242188 C3.53444718 36.70045903 3.46961349 40.66859076 3.40429688 44.63671875 C3.27524439 52.42458377 3.13966008 60.21231722 3 68 C2.67 68 2.34 68 2 68 C1.99191315 67.27194656 1.98382629 66.54389313 1.97549438 65.79377747 C1.89745908 58.92275173 1.81014144 52.05189945 1.71247292 45.18112659 C1.66258932 41.64902973 1.61625893 38.11696161 1.578125 34.5847168 C1.53409746 30.52113239 1.47447893 26.45790528 1.4140625 22.39453125 C1.40251129 21.1297847 1.39096008 19.86503815 1.37905884 18.56196594 C1.35918915 17.38111923 1.33931946 16.20027252 1.31884766 14.98364258 C1.30552399 13.94661697 1.29220032 12.90959137 1.2784729 11.84114075 C0.98878515 8.88557967 0.14548649 6.71879009 -1 4 C-0.625 1.6875 -0.625 1.6875 0 0 Z " fill="#D1C5C4" transform="translate(77,177)"/>
<path d="M0 0 C0 3 0 3 -1.32200623 4.67604065 C-1.94076126 5.28511765 -2.5595163 5.89419464 -3.19702148 6.52172852 C-4.24326942 7.56279503 -4.24326942 7.56279503 -5.31065369 8.62489319 C-6.07309891 9.3687175 -6.83554413 10.11254181 -7.62109375 10.87890625 C-8.39558365 11.64677963 -9.17007355 12.41465302 -9.96803284 13.20579529 C-12.45089637 15.66518886 -14.94366824 18.11423301 -17.4375 20.5625 C-19.92602931 23.01601675 -22.41243755 25.47163023 -24.89625549 27.92991638 C-26.44450512 29.46113516 -27.99581835 30.98926338 -29.55039978 32.51405334 C-30.25105057 33.20494553 -30.95170135 33.89583771 -31.67358398 34.60766602 C-32.29313461 35.21594742 -32.91268524 35.82422882 -33.55101013 36.45094299 C-35.0964867 37.95596943 -35.0964867 37.95596943 -36 40 C-36.66 39.67 -37.32 39.34 -38 39 C-35.90977371 35.42919675 -33.88031121 32.76132996 -30.6875 30.125 C-24.28653464 24.62608151 -18.44141041 18.54690532 -12.5 12.5625 C-11.28408886 11.3415631 -10.06794484 10.12085808 -8.8515625 8.90039062 C-5.89835034 5.93625987 -2.94830602 2.96901042 0 0 Z " fill="#E6E2E3" transform="translate(174,219)"/>
<path d="M0 0 C2.5 2.1875 2.5 2.1875 4 4 C-1.52276138 2.20510255 -1.52276138 2.20510255 -3.86328125 1.19921875 C-12.23298637 -2.339875 -19.1807972 -1.21504073 -27.8125 1.05078125 C-28.534375 1.36402344 -29.25625 1.67726562 -30 2 C-30.33 2.99 -30.66 3.98 -31 5 C-32.64333504 6.03789581 -34.31243867 7.03567924 -36 8 C-37.75149165 9.58245275 -37.75149165 9.58245275 -39 11 C-39.66 10.67 -40.32 10.34 -41 10 C-30.20355582 -2.20467603 -15.58154064 -8.07931737 0 0 Z " fill="#E0DDDE" transform="translate(216,208)"/>
<path d="M0 0 C0.33 0 0.66 0 1 0 C1.33 11.55 1.66 23.1 2 35 C-2.05258567 32.97370716 -3.49958627 31.53107732 -6.25 28.0625 C-6.95640625 27.18722656 -7.6628125 26.31195313 -8.390625 25.41015625 C-10 23 -10 23 -10 20 C-5.545 24.95 -5.545 24.95 -1 30 C-0.67 20.1 -0.34 10.2 0 0 Z " fill="#E6E3E2" transform="translate(396,186)"/>
<path d="M0 0 C0 4.38618346 -2.73456783 6.55175811 -5.5 9.6875 C-6.02464844 10.29400391 -6.54929687 10.90050781 -7.08984375 11.52539062 C-8.38666902 13.02263435 -9.69249362 14.51207472 -11 16 C-11.33 15.34 -11.66 14.68 -12 14 C-11.67 13.34 -11.34 12.68 -11 12 C-10.34 12 -9.68 12 -9 12 C-8.61714844 11.14148438 -8.61714844 11.14148438 -8.2265625 10.265625 C-6.86912841 7.75826267 -5.28025896 5.8669544 -3.375 3.75 C-2.74335938 3.04359375 -2.11171875 2.3371875 -1.4609375 1.609375 C-0.97882813 1.07828125 -0.49671875 0.5471875 0 0 Z " fill="#E4E1E2" transform="translate(286,178)"/>
<path d="M0 0 C5.88502111 1.32412975 9.96089209 4.6533458 14 9 C14 9.66 14 10.32 14 11 C10.09120039 9.34627709 7.23788375 6.69823646 4 4 C1.78412652 2.72147713 1.78412652 2.72147713 0 2 C0 1.34 0 0.68 0 0 Z " fill="#E5E3E3" transform="translate(198,115)"/>
<path d="M0 0 C0.66 0.33 1.32 0.66 2 1 C0.73532205 4.79403384 -0.61697513 5.06684293 -4 7 C-5.75149165 8.58245275 -5.75149165 8.58245275 -7 10 C-7.66 9.67 -8.32 9.34 -9 9 C-6.03 6.03 -3.06 3.06 0 0 Z " fill="#EAE3E6" transform="translate(184,209)"/>
<path d="M0 0 C0.99 0 1.98 0 3 0 C2.67 2.97 2.34 5.94 2 9 C0.05276405 6.07914607 -0.55175352 4.40667322 -1 1 C-0.67 0.67 -0.34 0.34 0 0 Z " fill="#D7D2D3" transform="translate(77,177)"/>
</svg>
